<svg xmlns="http://www.w3.org/2000/svg" viewBox="0 0 464 464"><path d="M388.8 28c0 15.2-18.4 28-41.6 28H116.8c-23.2 0-41.6-12.8-41.6-28S93.6 0 116.8 0h230.4c23.2 0 41.6 12.8 41.6 28z" fill="#b7874e"/><path d="M248 0h99.2c23.2 0 41.6 12.8 41.6 28s-18.4 27.2-41.6 27.2" fill="#93591b"/><path fill="#494949" d="M338.4 464H125.6L60 32h344z"/><path fill="#282828" d="M56 32h348l-65.6 432"/><path d="M56 32h348l-37.6 248.8"/><path fill="#b7874e" d="M24 24h416v48H24z"/><path fill="#93591b" d="M24 24h416v48"/><path fill="#878787" d="M345.6 416H118.4l1.6 16h224z"/><path fill="#fcf170" d="M358.4 336l28-184H77.6l28 184z"/><path fill="#f2b233" d="M358.4 336l28-184H80"/><path d="M224 171.2c-32 5.6-56.8 35.2-56.8 72 0 36 24.8 66.4 56.8 72v-144zm16 0v144c32-5.6 56.8-35.2 56.8-72 0-36-24.8-66.4-56.8-72z"/></svg>