<svg width="28" height="28" viewBox="0 -2 28 28" xmlns="http://www.w3.org/2000/svg"><path fill="#676c6f" d="M14 2l-.128-.001c-2.098 0-4.102.399-5.942 1.124l.11-.038a11.285 11.285 0 00-4.4 2.922l-.007.007A5.884 5.884 0 002 9.994v.005a5.677 5.677 0 001.131 3.351l-.011-.015a9.584 9.584 0 003.096 2.719l.049.025 1.36.782-.426 1.498A11.174 11.174 0 016.077 21.1l.029-.054a15.466 15.466 0 004.313-2.686l-.017.014.672-.594.89.094a17.07 17.07 0 002.028.125h.004l.128.001c2.098 0 4.102-.399 5.942-1.124l-.11.038a11.285 11.285 0 004.4-2.922l.007-.007c1.009-1.025 1.632-2.432 1.632-3.984s-.623-2.96-1.633-3.985l.001.001a11.245 11.245 0 00-4.329-2.904l-.078-.025c-1.73-.687-3.735-1.086-5.833-1.086l-.132.001h.007zm14 8a7.762 7.762 0 01-1.884 5.033l.009-.01a12.716 12.716 0 01-5.008 3.611l-.086.03c-2.023.846-4.374 1.337-6.839 1.337L13.99 20H14c-.8-.002-1.588-.047-2.363-.134l.097.009a17.021 17.021 0 01-7.069 3.756l-.118.026c-.503.145-1.107.266-1.726.339l-.055.005h-.08a.621.621 0 01-.422-.164.81.81 0 01-.249-.424l-.001-.005v-.016a.201.201 0 01-.027-.102c0-.033.008-.063.021-.091l-.001.001a.406.406 0 00.031-.159v-.002q-.008-.031.07-.149l.094-.141.11-.133.125-.141q.11-.125.484-.539l.539-.594q.164-.18.484-.617c.174-.231.343-.493.491-.767l.017-.033q.187-.359.422-.922c.137-.317.276-.712.39-1.117l.017-.07a11.573 11.573 0 01-3.844-3.405l-.024-.035A7.524 7.524 0 01-.001 9.999v-.002a7.762 7.762 0 011.884-5.033l-.009.01a12.716 12.716 0 015.008-3.611l.086-.03C8.991.487 11.342-.004 13.807-.004l.202.001h-.01l.192-.001c2.465 0 4.816.491 6.959 1.381l-.12-.044a12.734 12.734 0 015.078 3.622l.015.018a7.754 7.754 0 011.875 5.021v.003z"/></svg>