<svg xmlns="http://www.w3.org/2000/svg" viewBox="0 0 501.289 501.289"><g fill="#ffd15c"><path d="M39.457 22.894c60.604 12.539 106.58 66.873 106.58 131.657 0 39.706 15.673 77.322 43.886 105.535 17.763 17.763 38.661 30.302 60.604 36.571-54.335 27.167-132.702 8.359-190.171-49.11C-6.519 179.629-20.102 82.454 31.098 31.254l8.359-8.36z"/><path d="M277.694 277.849c-3.135 3.135-5.225 5.224-8.359 7.314-61.649-11.493-107.625-65.828-107.625-130.612 0-39.706-15.673-77.322-43.886-105.535C101.106 31.254 80.208 19.76 57.22 12.445c54.335-27.167 132.702-8.359 190.171 49.11 67.919 67.919 81.503 165.094 30.303 216.294z"/></g><g fill="#ff7058"><path d="M186.788 474.29c71.053-14.629 125.388-77.322 125.388-153.6 0-47.02 17.763-89.861 51.2-123.298 19.853-19.853 44.931-34.482 71.053-42.841-62.694-31.347-154.645-10.449-222.563 57.469-79.412 79.412-95.086 193.306-35.527 252.865 3.134 3.136 6.269 6.271 10.449 9.405z"/><path d="M464.73 176.494c-3.135-3.135-6.269-6.269-10.449-9.404-71.053 14.629-125.388 77.322-125.388 153.6 0 47.02-17.763 89.861-51.2 123.298-19.853 19.853-44.931 34.482-71.053 42.841 62.694 31.347 154.645 10.449 222.563-57.469 79.413-79.413 96.131-193.306 35.527-252.866z"/></g></svg>