<svg xmlns="http://www.w3.org/2000/svg" viewBox="0 0 511.999 511.999"><path d="M427.483 255.125l11.08-11.083 11.083 11.08-11.08 11.083zm-68.042 131.12l11.082-11.081 11.081 11.081-11.081 11.082zm64.059 14.684l11.081-11.082 11.082 11.082-11.082 11.082zM299.39 211.801l11.082-11.081 11.082 11.081-11.082 11.082zm-5.889 107.862l11.08-11.083 11.084 11.08-11.08 11.083zM402.848 197.01l11.08-11.083 11.083 11.08-11.08 11.083zM312.433 40.439c-24.632-24.63-62.822-32.356-107.546-21.743-43.368 10.29-88.033 36.74-125.77 74.475-37.736 37.736-64.185 82.402-74.476 125.77-10.611 44.72-2.89 82.913 21.743 107.546 17.368 17.368 41.683 26.351 70.269 26.351 10.178 0 20.901-1.14 32.039-3.446 40.938-8.472 83.96-31.976 121.143-66.18l-10.609-11.534c-71.703 65.956-160.328 85.164-201.761 43.727-.69-.69-1.36-1.395-2.018-2.112 12.173-8.769 22.468-13.625 33.27-18.708 17.994-8.469 36.6-17.227 63.578-44.203 26.971-26.973 35.73-45.581 44.2-63.576 8.26-17.552 16.064-34.129 41.104-59.168 25.041-25.042 41.618-32.846 59.168-41.106 11.037-5.196 22.404-10.557 35.799-20.208 5.028 8.918 8.285 19.216 9.718 30.8l15.554-1.922c-2.748-22.227-11.296-40.652-25.405-54.763zm-42.341 31.915c-17.994 8.469-36.6 17.228-63.576 44.203-26.972 26.973-35.731 45.581-44.201 63.577-8.261 17.551-16.064 34.128-41.103 59.167-25.043 25.043-41.619 32.846-59.17 41.105-11.033 5.194-22.397 10.553-35.785 20.196-11.38-20.165-13.694-47.162-6.367-78.04 9.63-40.582 34.599-82.597 70.31-118.306 35.711-35.711 77.726-60.68 118.305-70.309 39.233-9.308 72.202-3.068 92.845 17.576a68.236 68.236 0 012.021 2.114c-12.178 8.773-22.476 13.631-33.279 18.717z"/><path d="M475.73 154.084c-24.117-39.124-56.585-60.671-91.42-60.671s-67.303 21.547-91.42 60.671c-23.389 37.942-36.27 88.227-36.27 141.595 0 53.366 12.88 103.652 36.27 141.595 24.117 39.124 56.585 60.672 91.42 60.672s67.302-21.547 91.419-60.672C499.119 399.331 512 349.047 512 295.679c-.001-53.367-12.881-103.653-36.27-141.595zM365.916 479.728c-22.306-6.209-43.033-23.663-59.685-50.679-21.886-35.503-33.939-82.868-33.939-133.37s12.053-97.868 33.939-133.371c21.156-34.322 48.886-53.223 78.078-53.223.977 0 1.951.025 2.924.067-2.406 14.813-6.253 25.53-10.297 36.765-6.734 18.714-13.698 38.064-13.698 76.211 0 38.145 6.965 57.495 13.7 76.209 6.569 18.252 12.774 35.491 12.774 70.901 0 35.416-6.205 52.655-12.774 70.904-4.129 11.476-8.374 23.3-11.022 39.586zm96.472-50.678c-21.156 34.322-48.886 53.223-78.078 53.223a65.98 65.98 0 01-2.92-.067c2.406-14.808 6.252-25.523 10.296-36.755 6.735-18.713 13.7-38.063 13.7-76.212 0-38.145-6.965-57.495-13.7-76.209-6.569-18.252-12.774-35.491-12.774-70.901 0-35.414 6.204-52.654 12.773-70.903 4.13-11.477 8.376-23.304 11.024-39.594 22.304 6.211 43.029 23.664 59.681 50.678 21.886 35.503 33.939 82.869 33.939 133.371-.002 50.499-12.055 97.865-33.941 133.369zM239.68 175.049h15.672v15.672H239.68zM98.87 219.674h15.672v15.672H98.87zm34.908 55.678h15.672v15.672h-15.672zM179.75 53.851h15.672v15.672H179.75zm-80.451 72.092h15.672v15.672H99.299zm164.036-9.403h15.672v15.672h-15.672z"/></svg>