<svg xmlns="http://www.w3.org/2000/svg" viewBox="0 0 297 297"><path d="M66.102 0H15.804C7.089 0 0 7.089 0 15.804v50.298c0 8.715 7.089 15.804 15.804 15.804h50.298c8.715 0 15.804-7.089 15.804-15.804V15.804C81.907 7.089 74.817 0 66.102 0zm107.547 0h-50.298c-8.715 0-15.804 7.089-15.804 15.804v50.298c0 8.715 7.089 15.804 15.804 15.804h50.298c8.715 0 15.804-7.089 15.804-15.804V15.804C189.453 7.089 182.364 0 173.649 0zM66.102 107.547H15.804C7.089 107.547 0 114.636 0 123.351v50.298c0 8.715 7.089 15.804 15.804 15.804h50.298c8.715 0 15.804-7.089 15.804-15.804v-50.298c.001-8.715-7.089-15.804-15.804-15.804zm107.547 0h-50.298c-8.715 0-15.804 7.089-15.804 15.804v50.298c0 8.715 7.089 15.804 15.804 15.804h50.298c8.715 0 15.804-7.089 15.804-15.804v-50.298c0-8.715-7.089-15.804-15.804-15.804zM281.196 0h-50.298c-8.715 0-15.804 7.089-15.804 15.804v50.298c0 8.715 7.089 15.804 15.804 15.804h50.298c8.715 0 15.804-7.089 15.804-15.804V15.804C297 7.089 289.911 0 281.196 0zm0 107.547h-50.298c-8.715 0-15.804 7.089-15.804 15.804v50.298c0 8.715 7.089 15.804 15.804 15.804h50.298c8.715 0 15.804-7.089 15.804-15.804v-50.298c0-8.715-7.089-15.804-15.804-15.804zM66.102 215.093H15.804C7.089 215.093 0 222.183 0 230.898v50.298C0 289.911 7.089 297 15.804 297h50.298c8.715 0 15.804-7.089 15.804-15.804v-50.298c.001-8.715-7.089-15.805-15.804-15.805zm107.547 0h-50.298c-8.715 0-15.804 7.089-15.804 15.804v50.298c0 8.715 7.089 15.804 15.804 15.804h50.298c8.715 0 15.804-7.089 15.804-15.804v-50.298c0-8.714-7.089-15.804-15.804-15.804zm107.547 0h-50.298c-8.715 0-15.804 7.089-15.804 15.804v50.298c0 8.715 7.089 15.804 15.804 15.804h50.298c8.715 0 15.804-7.089 15.804-15.804v-50.298c0-8.714-7.089-15.804-15.804-15.804z" fill="#243B55"/></svg>