<svg xmlns="http://www.w3.org/2000/svg" viewBox="0 0 512 512"><path d="M452.248 128.091h-.021l-392.495-.54c-8.446-.012-15.283-6.868-15.271-15.313.012-8.438 6.855-15.271 15.292-15.271h.021l392.495.54c8.444.012 15.283 6.868 15.271 15.313-.013 8.439-6.857 15.271-15.292 15.271z" fill="#3c1146"/><path d="M426.114 112.573H85.886l23.111-73.877a33.64 33.64 0 0132.044-23.404h229.916a33.641 33.641 0 0132.046 23.404l23.111 73.877z" fill="#d4a8b4"/><g fill="#3c1146"><path d="M426.143 127.865H85.886a15.29 15.29 0 01-14.594-19.858l23.111-73.878C100.934 13.68 119.666 0 141.041 0h229.914c21.377 0 40.109 13.682 46.611 34.044l22.842 73.01a15.228 15.228 0 011.026 5.519c.001 8.446-6.844 15.292-15.291 15.292zm-319.45-30.584h298.615l-16.899-54.019c-2.412-7.548-9.435-12.679-17.451-12.679H141.041c-8.016 0-15.04 5.13-17.479 12.766l-16.869 53.932z"/><path d="M367.614 512h-223.23c-23.034 0-42.512-17.988-44.342-40.95L71.598 114.015c-.671-8.42 5.609-15.787 14.029-16.459 8.453-.656 15.789 5.611 16.459 14.029l28.446 357.036c.572 7.175 6.658 12.795 13.854 12.795h223.23c7.196 0 13.283-5.62 13.854-12.795l20.326-255.118c.67-8.418 8.033-14.694 16.459-14.029 8.42.67 14.7 8.039 14.03 16.459l-20.326 255.118C410.126 494.014 390.647 512 367.614 512z"/></g><path d="M77.312 214.717L90.41 379.105h331.179l13.098-164.388H77.312zm201.871 105.377c-15.616 15.616-38.653 17.896-51.457 5.092-12.804-12.804-10.524-35.841 5.092-51.457s38.653-17.896 51.457-5.092c12.802 12.803 10.522 35.841-5.092 51.457z" fill="#d4a8b4"/><path d="M421.589 394.397H90.411c-7.975 0-14.61-6.127-15.243-14.078L62.071 215.931a15.292 15.292 0 0115.245-16.506H434.69a15.296 15.296 0 0115.245 16.508l-13.098 164.388c-.637 7.947-7.274 14.076-15.248 14.076zm-317.057-30.583h302.933l10.663-133.804H93.872l10.66 133.804zm144.279-15.046c-12.338 0-23.666-4.534-31.901-12.769-9.354-9.354-13.916-22.839-12.515-36.993 1.309-13.228 7.562-26.045 17.609-36.09 11.35-11.35 26.36-17.861 41.183-17.861 12.336 0 23.667 4.534 31.9 12.769 18.743 18.745 16.46 51.529-5.092 73.083-11.352 11.349-26.361 17.861-41.184 17.861zm14.376-73.129c-6.67 0-13.981 3.328-19.557 8.903-4.987 4.987-8.193 11.356-8.799 17.477-.291 2.939-.196 8.452 3.707 12.354 3.15 3.15 7.325 3.811 10.273 3.811 6.67 0 13.983-3.328 19.557-8.903 9.464-9.464 11.798-23.126 5.092-29.831-3.148-3.151-7.324-3.811-10.273-3.811z" fill="#3c1146"/></svg>