<svg xmlns="http://www.w3.org/2000/svg" viewBox="0 0 512 512"><g fill="#b3b3b3"><path d="M162.091 12.249H21.445v410.029H155.08V89.722h335.47c0-21.399-8.672-40.764-22.685-54.777-14.025-14.025-33.378-22.697-54.777-22.697H242.933"/><path d="M87.993 375.279c-16.021 0-29.017-12.984-29.017-29.005s12.996-29.017 29.017-29.017 29.005 12.996 29.005 29.017-12.984 29.005-29.005 29.005z"/></g><path d="M87.993 387.528c-22.753 0-41.265-18.505-41.265-41.254 0-22.755 18.512-41.266 41.265-41.266 22.747 0 41.255 18.512 41.255 41.266 0 22.747-18.508 41.254-41.255 41.254zm0-58.023c-9.247 0-16.767 7.523-16.767 16.769 0 9.239 7.522 16.756 16.767 16.756 9.24 0 16.758-7.517 16.758-16.756 0-9.247-7.518-16.769-16.758-16.769z"/><path d="M87.993 277.962c-16.021 0-29.017-12.996-29.017-29.017s12.996-29.005 29.017-29.005 29.005 12.984 29.005 29.005-12.984 29.017-29.005 29.017z" fill="#b3b3b3"/><path d="M87.993 290.211c-22.753 0-41.265-18.512-41.265-41.265 0-22.747 18.512-41.254 41.265-41.254 22.747 0 41.255 18.505 41.255 41.254 0 22.752-18.508 41.265-41.255 41.265zm0-58.021c-9.247 0-16.767 7.517-16.767 16.756 0 9.247 7.522 16.767 16.767 16.767 9.24 0 16.758-7.522 16.758-16.767 0-9.241-7.518-16.756-16.758-16.756z"/><path d="M87.993 180.645c-16.021 0-29.017-12.996-29.017-29.017s12.996-29.005 29.017-29.005 29.005 12.984 29.005 29.005-12.984 29.017-29.005 29.017z" fill="#b3b3b3"/><path d="M87.993 192.894c-22.753 0-41.265-18.512-41.265-41.266 0-22.747 18.512-41.254 41.265-41.254 22.747 0 41.255 18.505 41.255 41.254 0 22.755-18.508 41.266-41.255 41.266zm0-58.022c-9.247 0-16.767 7.517-16.767 16.756 0 9.247 7.522 16.769 16.767 16.769 9.24 0 16.758-7.523 16.758-16.769 0-9.239-7.518-16.756-16.758-16.756z"/><path fill="#666" d="M21.445 422.277H490.55v77.474H21.445z"/><path fill="#ccc2b8" d="M417.669 212.235v153.184H246.394V256.404l-36.746-44.169z"/><path fill="#6e5b3f" d="M246.397 365.419h171.275v56.859H246.397z"/><path d="M298.026 89.722h68.03v71.055h-68.03zm15.164 71.056h37.702v50.514H313.19z" fill="#ccc2b8"/><path d="M198.832 24.498h4.185c6.764 0 12.249-5.485 12.249-12.249S209.782 0 203.018 0h-4.185c-6.764 0-12.249 5.485-12.249 12.249s5.485 12.249 12.248 12.249z"/><path d="M462.937 377.671c21.982 0 39.866-17.883 39.866-39.865v-46.767c0-21.982-17.884-39.865-39.866-39.865h-33.019v-38.939c0-6.764-5.485-12.249-12.249-12.249h-54.533v-26.96h2.916c6.764 0 12.249-5.485 12.249-12.249V140.56h17.908c6.764 0 12.249-5.485 12.249-12.249s-5.485-12.249-12.249-12.249h-17.908v-14.091H490.55c6.764 0 12.249-5.485 12.249-12.249 0-23.967-9.33-46.496-26.272-63.437C459.578 9.335 437.048 0 413.088 0H242.933c-6.764 0-12.249 5.485-12.249 12.249s5.485 12.249 12.249 12.249h170.155c17.417 0 33.793 6.787 46.116 19.111 9.376 9.376 15.546 21.108 17.956 33.865H155.08c-6.764 0-12.249 5.485-12.249 12.249v320.306H33.694V24.498h128.397c6.764 0 12.249-5.485 12.249-12.249S168.855 0 162.091 0H21.445C14.681 0 9.196 5.485 9.196 12.249v487.503c0 6.764 5.485 12.249 12.249 12.249H490.55c6.764 0 12.249-5.485 12.249-12.249v-77.474c0-6.764-5.485-12.249-12.249-12.249h-60.632v-32.358h33.019zm0-101.998c8.474 0 15.369 6.894 15.369 15.367v46.767c0 8.474-6.895 15.367-15.369 15.367h-33.019v-77.501h33.019zm-57.516 77.497H258.643v-96.766c0-2.863-1.002-5.634-2.833-7.834l-20.039-24.087h169.65V353.17zM338.64 199.043h-13.203v-26.016h13.203v26.016zm15.165-97.072v26.221c0 .04-.006.078-.006.119s.006.078.006.119v20.099h-43.532v-46.558h43.532zm-186.477 0h118.446v58.806c0 6.764 5.485 12.249 12.249 12.249h2.915v26.96h-91.29a12.248 12.248 0 00-9.417 20.083l33.914 40.765V410.03h-66.817V101.971zm310.973 385.531H33.694v-52.976h444.609v52.976h-.002zm-219.658-77.473v-32.361H405.42v32.361H258.643z"/><path d="M116.998 346.274c0 16.021-12.984 29.005-29.005 29.005s-29.017-12.984-29.017-29.005 12.996-29.017 29.017-29.017 29.005 12.995 29.005 29.017z" fill="#df4d60"/><path d="M87.993 387.528c-22.753 0-41.265-18.505-41.265-41.254 0-22.755 18.512-41.266 41.265-41.266 22.747 0 41.255 18.512 41.255 41.266 0 22.747-18.508 41.254-41.255 41.254zm0-58.023c-9.247 0-16.767 7.523-16.767 16.769 0 9.239 7.522 16.756 16.767 16.756 9.24 0 16.758-7.517 16.758-16.756 0-9.247-7.518-16.769-16.758-16.769z"/><path d="M116.998 248.945c0 16.021-12.984 29.017-29.005 29.017s-29.017-12.996-29.017-29.017 12.996-29.005 29.017-29.005 29.005 12.983 29.005 29.005z" fill="#df4d60"/><path d="M87.993 290.211c-22.753 0-41.265-18.512-41.265-41.265 0-22.747 18.512-41.254 41.265-41.254 22.747 0 41.255 18.505 41.255 41.254 0 22.752-18.508 41.265-41.255 41.265zm0-58.021c-9.247 0-16.767 7.517-16.767 16.756 0 9.247 7.522 16.767 16.767 16.767 9.24 0 16.758-7.522 16.758-16.767 0-9.241-7.518-16.756-16.758-16.756z"/><path d="M116.998 151.628c0 16.021-12.984 29.017-29.005 29.017s-29.017-12.996-29.017-29.017 12.996-29.005 29.017-29.005 29.005 12.984 29.005 29.005z" fill="#df4d60"/><path d="M87.993 192.894c-22.753 0-41.265-18.512-41.265-41.266 0-22.747 18.512-41.254 41.265-41.254 22.747 0 41.255 18.505 41.255 41.254 0 22.755-18.508 41.266-41.255 41.266zm0-58.022c-9.247 0-16.767 7.517-16.767 16.756 0 9.247 7.522 16.769 16.767 16.769 9.24 0 16.758-7.523 16.758-16.769 0-9.239-7.518-16.756-16.758-16.756z"/></svg>